<svg id="Capa_1" data-name="Capa 1" xmlns="http://www.w3.org/2000/svg" viewBox="0 0 512 512"><defs><style>.cls-1{fill:none;}.cls-1,.cls-2{stroke:#1d1d1b;stroke-miterlimit:10;stroke-width:10px;}.cls-2{fill:#1d1d1b;}.cls-3{fill:#0580cc;}</style></defs><title>rain2</title><g id="Eye"><path class="cls-1" d="M11,147.24C17,138.17,101.14,15,256.09,15.3c154.05.45,237.36,122.53,243.48,131.94"/><circle class="cls-2" cx="255.3" cy="136.25" r="119.24"/></g><g id="Drops"><path class="cls-3" d="M210.24,302.53l.12-.11-1.25-.34A37.73,37.73,0,0,0,197.66,299l-24.48-6.58-37.07-10,10,37.06,6.12,23a40.81,40.81,0,1,0,58-40Z"/><path class="cls-3" d="M333.91,302.53l.11-.11-1.24-.34A37.8,37.8,0,0,0,321.33,299l-24.49-6.58-37.06-10,10,37.06,6.12,23a40.81,40.81,0,1,0,58-40Z"/><path class="cls-3" d="M223.28,417.13l.11-.12-1.25-.34a38.25,38.25,0,0,0-11.44-3.06L186.21,407l-37.06-10,10,37.06,6.12,23a40.81,40.81,0,1,0,58-40Z"/><path class="cls-3" d="M346.83,417.13l.11-.12-1.24-.34a38.39,38.39,0,0,0-11.45-3.06L309.76,407l-37.06-10,10,37.06,6.13,23a40.8,40.8,0,1,0,58-40Z"/><path class="cls-3" d="M457.46,302.53l.11-.11-1.24-.34A37.8,37.8,0,0,0,444.88,299l-24.48-6.58-37.07-10,10,37.06,6.13,23a40.8,40.8,0,1,0,58-40Z"/></g></svg>