<svg id="Capa_1" data-name="Capa 1" xmlns="http://www.w3.org/2000/svg" viewBox="0 0 512 512"><defs><style>.cls-1{fill:#cacbcc;}.cls-2{fill:none;}.cls-2,.cls-3{stroke:#1d1d1b;stroke-miterlimit:10;stroke-width:10px;}.cls-3{fill:#1d1d1b;}</style></defs><title>snow2</title><g id="Snow"><path class="cls-1" d="M154.4,51.3h0a7.64,7.64,0,0,0,10.4,4.3h0a7.57,7.57,0,0,1,10.1,10.1h0a7.61,7.61,0,0,0,4.3,10.4h0a7.6,7.6,0,0,1,0,14.3h0a7.64,7.64,0,0,0-4.3,10.4h0a7.57,7.57,0,0,1-10.1,10.1h0a7.61,7.61,0,0,0-10.4,4.3h0a7.6,7.6,0,0,1-14.3,0h0a7.64,7.64,0,0,0-10.4-4.3h0a7.57,7.57,0,0,1-10.1-10.1h0a7.61,7.61,0,0,0-4.3-10.4h0a7.6,7.6,0,0,1,0-14.3h0a7.64,7.64,0,0,0,4.3-10.4h0a7.57,7.57,0,0,1,10.1-10.1h0a7.61,7.61,0,0,0,10.4-4.3h0A7.56,7.56,0,0,1,154.4,51.3Z"/><path class="cls-1" d="M262.3,51.3h0a7.64,7.64,0,0,0,10.4,4.3h0a7.57,7.57,0,0,1,10.1,10.1h0a7.61,7.61,0,0,0,4.3,10.4h0a7.6,7.6,0,0,1,0,14.3h0a7.64,7.64,0,0,0-4.3,10.4h0a7.57,7.57,0,0,1-10.1,10.1h0a7.61,7.61,0,0,0-10.4,4.3h0a7.6,7.6,0,0,1-14.3,0h0a7.64,7.64,0,0,0-10.4-4.3h0a7.57,7.57,0,0,1-10.1-10.1h0a7.61,7.61,0,0,0-4.3-10.4h0a7.6,7.6,0,0,1,0-14.3h0a7.64,7.64,0,0,0,4.3-10.4h0a7.57,7.57,0,0,1,10.1-10.1h0A7.61,7.61,0,0,0,248,51.3h0A7.56,7.56,0,0,1,262.3,51.3Z"/><path class="cls-1" d="M159.8,152.3h0a7.64,7.64,0,0,0,10.4,4.3h0a7.57,7.57,0,0,1,10.1,10.1h0a7.61,7.61,0,0,0,4.3,10.4h0a7.6,7.6,0,0,1,0,14.3h0a7.64,7.64,0,0,0-4.3,10.4h0a7.57,7.57,0,0,1-10.1,10.1h0a7.61,7.61,0,0,0-10.4,4.3h0a7.6,7.6,0,0,1-14.3,0h0a7.64,7.64,0,0,0-10.4-4.3h0A7.57,7.57,0,0,1,125,201.8h0a7.61,7.61,0,0,0-4.3-10.4h0a7.6,7.6,0,0,1,0-14.3h0a7.64,7.64,0,0,0,4.3-10.4h0a7.57,7.57,0,0,1,10.1-10.1h0a7.61,7.61,0,0,0,10.4-4.3h0A7.6,7.6,0,0,1,159.8,152.3Z"/><path class="cls-1" d="M267.8,152.3h0a7.64,7.64,0,0,0,10.4,4.3h0a7.57,7.57,0,0,1,10.1,10.1h0a7.61,7.61,0,0,0,4.3,10.4h0a7.6,7.6,0,0,1,0,14.3h0a7.64,7.64,0,0,0-4.3,10.4h0a7.57,7.57,0,0,1-10.1,10.1h0a7.61,7.61,0,0,0-10.4,4.3h0a7.6,7.6,0,0,1-14.3,0h0a7.64,7.64,0,0,0-10.4-4.3h0A7.57,7.57,0,0,1,233,201.8h0a7.61,7.61,0,0,0-4.3-10.4h0a7.6,7.6,0,0,1,0-14.3h0a7.64,7.64,0,0,0,4.3-10.4h0a7.57,7.57,0,0,1,10.1-10.1h0a7.61,7.61,0,0,0,10.4-4.3h0C255.8,145.6,265.4,145.6,267.8,152.3Z"/><path class="cls-1" d="M371.9,152.3h0a7.64,7.64,0,0,0,10.4,4.3h0a7.57,7.57,0,0,1,10.1,10.1h0a7.61,7.61,0,0,0,4.3,10.4h0a7.6,7.6,0,0,1,0,14.3h0a7.64,7.64,0,0,0-4.3,10.4h0a7.57,7.57,0,0,1-10.1,10.1h0a7.61,7.61,0,0,0-10.4,4.3h0a7.6,7.6,0,0,1-14.3,0h0a7.64,7.64,0,0,0-10.4-4.3h0a7.57,7.57,0,0,1-10.1-10.1h0a7.61,7.61,0,0,0-4.3-10.4h0a7.6,7.6,0,0,1,0-14.3h0a7.64,7.64,0,0,0,4.3-10.4h0a7.57,7.57,0,0,1,10.1-10.1h0a7.61,7.61,0,0,0,10.4-4.3h0C359.9,145.6,369.5,145.6,371.9,152.3Z"/><path class="cls-1" d="M371.9,51.3h0a7.64,7.64,0,0,0,10.4,4.3h0a7.57,7.57,0,0,1,10.1,10.1h0a7.61,7.61,0,0,0,4.3,10.4h0a7.6,7.6,0,0,1,0,14.3h0a7.64,7.64,0,0,0-4.3,10.4h0a7.57,7.57,0,0,1-10.1,10.1h0a7.61,7.61,0,0,0-10.4,4.3h0a7.6,7.6,0,0,1-14.3,0h0a7.64,7.64,0,0,0-10.4-4.3h0a7.57,7.57,0,0,1-10.1-10.1h0a7.61,7.61,0,0,0-4.3-10.4h0a7.6,7.6,0,0,1,0-14.3h0a7.64,7.64,0,0,0,4.3-10.4h0a7.57,7.57,0,0,1,10.1-10.1h0a7.61,7.61,0,0,0,10.4-4.3h0A7.56,7.56,0,0,1,371.9,51.3Z"/></g><g id="Eye"><path class="cls-2" d="M11,368.14c6-9.07,90.11-132.28,245.06-131.94,154.05.45,237.36,122.53,243.48,131.94"/><circle class="cls-3" cx="255.3" cy="357.15" r="119.24"/></g></svg>