<svg id="Capa_1" data-name="Capa 1" xmlns="http://www.w3.org/2000/svg" viewBox="0 0 512 512"><defs><style>.cls-1{fill:none;}.cls-1,.cls-2{stroke:#1d1d1b;stroke-miterlimit:10;stroke-width:10px;}.cls-2{fill:#1d1d1b;}.cls-3{fill:#f9e63d;}</style></defs><title>storm2</title><g id="Eye"><path class="cls-1" d="M11,379.14c6-9.07,90.11-132.28,245.06-131.94,154.05.45,237.36,122.53,243.48,131.94"/><circle class="cls-2" cx="255.3" cy="368.15" r="119.24"/></g><g id="Storm"><polygon class="cls-3" points="362.2 101.1 434.7 0 328.1 0 255.3 101.5 308.4 101.5 307 155.5 305.6 210.8 362.4 156.5 419.1 102.1 363.8 101.1 362.2 101.1"/><polygon class="cls-3" points="182.8 101.1 255.3 0 148.7 0 75.9 101.5 129 101.5 127.6 155.5 126.2 210.8 183 156.5 239.8 102.1 184.4 101.1 182.8 101.1"/></g></svg>